<?xml version="1.0" standalone="no"?>
<!DOCTYPE svg PUBLIC "-//W3C//DTD SVG 20010904//EN"
 "http://www.w3.org/TR/2001/REC-SVG-20010904/DTD/svg10.dtd">
<svg version="1.0" xmlns="http://www.w3.org/2000/svg"
 width="200.000000pt" height="282.000000pt" viewBox="0 0 200.000000 282.000000"
 preserveAspectRatio="xMidYMid meet">

<g transform="translate(0.000000,282.000000) scale(0.100000,-0.100000)"
fill="#000000" stroke="none">
<path d="M0 2395 c0 -393 1 -425 17 -435 17 -11 17 -11 0 -6 -16 5 -17 -7 -17
-153 0 -154 1 -159 20 -154 12 3 20 0 20 -7 0 -6 6 -10 13 -7 6 2 17 -3 24
-12 16 -21 16 -36 1 -24 -7 6 -25 13 -41 17 -25 6 -27 5 -15 -13 6 -11 22 -24
35 -30 13 -6 23 -15 23 -21 0 -6 -4 -9 -9 -5 -16 10 -25 -17 -9 -29 8 -6 13
-17 11 -23 -3 -7 2 -13 9 -13 8 0 14 -9 15 -21 2 -18 0 -19 -14 -7 -16 13 -16
8 5 -52 3 -8 2 -12 -3 -8 -10 9 -35 -16 -35 -36 0 -10 -9 -16 -25 -16 -24 0
-25 -2 -25 -68 0 -40 5 -73 12 -80 9 -9 9 -12 0 -12 -9 0 -12 -138 -12 -590
l0 -590 1000 0 1000 0 0 461 c0 419 -1 459 -16 445 -25 -26 -39 -19 -39 20 0
50 -26 66 -58 36 -13 -12 -30 -22 -38 -22 -8 0 -20 -5 -26 -11 -8 -8 -16 -8
-30 0 -10 6 -12 11 -5 11 14 0 17 36 3 45 -5 3 -18 -6 -28 -19 -18 -23 -21
-23 -53 -10 -19 8 -50 17 -68 20 -61 10 -75 13 -81 20 -3 4 2 4 11 1 10 -3 20
-2 23 3 4 6 1 10 -4 10 -6 0 -10 5 -9 11 2 6 -3 14 -11 17 -8 3 -11 0 -7 -7 5
-7 1 -9 -8 -5 -9 3 -16 10 -16 16 0 5 4 7 9 3 5 -3 13 0 17 6 5 8 9 8 14 -1 6
-10 18 -5 45 18 31 25 42 29 61 22 28 -11 59 13 49 38 -3 8 0 19 7 23 7 5 -4
7 -27 5 -26 -3 -46 1 -57 11 -15 13 -24 14 -62 3 -27 -7 -48 -20 -54 -33 -8
-17 -11 -18 -11 -5 -1 9 -7 20 -13 24 -7 4 -10 4 -6 -1 4 -4 3 -17 -3 -27 -8
-14 -8 -23 0 -31 6 -6 11 -18 11 -26 0 -8 -3 -11 -7 -7 -4 3 -13 -4 -20 -16
-10 -19 -12 -20 -13 -5 0 10 -4 16 -10 12 -13 -8 -1 -35 17 -35 8 0 12 -4 9
-9 -3 -5 -15 -7 -26 -4 -11 3 -17 10 -13 17 4 6 -2 4 -12 -4 -17 -13 -18 -13
-13 0 4 11 -2 15 -26 16 -31 1 -117 11 -126 15 -3 1 -9 1 -13 0 -5 -1 -6 3 -2
8 12 20 -30 31 -59 16 -24 -13 -31 -13 -56 0 -15 8 -30 21 -33 30 -4 8 -13 15
-22 15 -8 0 -15 5 -15 11 0 5 -3 8 -7 6 -5 -3 -9 11 -11 30 -1 19 -8 44 -14
56 -7 12 -11 29 -10 39 2 9 -2 19 -8 23 -5 3 -10 15 -10 25 0 10 -6 21 -12 24
-10 5 -10 7 -1 12 7 3 13 16 13 28 0 13 10 31 22 42 12 10 18 13 14 7 -10 -18
0 -16 20 4 13 13 19 14 22 5 2 -6 8 -12 14 -12 6 0 8 7 4 15 -3 9 3 19 14 25
14 7 20 7 20 0 0 -5 -8 -10 -17 -10 -11 0 -14 -3 -7 -8 6 -4 13 -15 17 -25 4
-10 15 -17 24 -15 12 2 19 -6 24 -27 6 -28 7 -28 8 -4 0 14 -4 30 -9 35 -8 8
0 19 25 38 l35 27 33 -25 c19 -15 42 -26 51 -26 12 0 16 -5 12 -18 -4 -12 1
-26 14 -37 20 -18 20 -18 20 6 0 14 -5 30 -12 37 -9 9 -4 12 25 12 20 0 37 -4
37 -10 0 -5 -4 -10 -9 -10 -5 0 -5 -15 -1 -34 4 -19 7 -36 5 -38 -1 -2 11 -13
26 -26 24 -20 29 -21 29 -7 0 12 5 15 23 9 12 -4 24 -9 27 -13 3 -3 17 -7 33
-8 24 -2 26 1 17 17 -5 10 -19 22 -30 25 -25 8 -43 40 -35 64 11 34 95 39 95
5 0 -8 -4 -14 -10 -14 -5 0 -10 4 -10 9 0 16 -28 20 -40 6 -9 -11 -7 -18 10
-32 13 -10 33 -29 45 -42 15 -15 25 -19 29 -12 15 23 36 11 37 -21 l2 -33 6
35 c4 25 2 37 -8 41 -12 4 -11 7 2 12 19 7 18 37 -2 61 -12 14 -10 16 11 16
15 0 38 15 62 41 32 33 44 39 65 35 24 -6 25 -5 8 8 -21 16 -17 20 38 35 32 9
43 19 58 49 9 21 17 46 17 55 0 9 3 17 8 17 4 0 8 31 10 70 3 69 3 70 -21 68
-38 -3 -86 41 -86 80 -1 46 -21 40 -61 -19 -52 -76 -71 -116 -85 -172 -4 -15
-21 -38 -39 -51 -67 -50 -222 -94 -209 -60 2 7 -5 17 -16 24 -24 12 -29 32 -6
24 17 -7 14 5 -10 61 -25 56 -47 130 -46 160 0 26 -1 27 -9 10 l-9 -20 -2 20
c-3 30 -5 38 -13 57 -4 9 -5 22 -1 28 3 5 0 10 -8 10 -8 0 -17 9 -20 20 -3 11
-9 20 -14 19 -4 -1 -17 -1 -28 0 -17 1 -15 4 11 20 17 10 40 22 52 26 34 10
102 57 102 70 0 6 14 24 31 41 60 57 75 133 51 267 -11 62 -19 78 -30 62 -9
-13 -51 -14 -49 -2 1 5 -4 12 -12 15 -8 3 -11 0 -7 -7 4 -6 2 -11 -3 -11 -6 0
-11 6 -11 14 0 8 -16 20 -36 26 -38 13 -40 22 -20 100 7 24 6 24 -8 5 -8 -11
-22 -29 -31 -40 -16 -20 -16 -20 -6 2 18 36 12 50 -10 23 -11 -14 -47 -52 -79
-86 -33 -33 -57 -64 -53 -67 3 -4 1 -7 -6 -7 -8 0 -11 -8 -8 -19 5 -22 -26
-57 -41 -47 -5 3 -10 0 -9 -7 1 -34 -5 -45 -29 -51 -31 -8 -45 1 -24 14 13 9
13 10 0 11 -19 2 -19 2 -57 -4 -22 -3 -33 -1 -37 9 -4 12 -10 10 -26 -6 -11
-11 -29 -20 -40 -20 -11 0 -29 -9 -40 -20 -21 -21 -51 -24 -85 -11 -11 5 -24
5 -30 1 -15 -12 -75 -18 -81 -8 -3 4 -17 8 -32 8 -15 0 -38 6 -52 13 -26 13
-60 12 -60 -3 0 -4 -6 -8 -12 -7 -40 1 -57 -5 -63 -23 -4 -11 -11 -18 -16 -15
-5 4 -9 1 -9 -5 0 -6 -4 -9 -9 -5 -5 3 -20 -15 -32 -40 -22 -43 -41 -56 -54
-35 -10 16 -40 11 -69 -11 -21 -17 -26 -18 -26 -5 0 11 -9 16 -26 16 -19 0
-25 -4 -21 -14 4 -10 1 -13 -7 -10 -8 3 -11 15 -8 30 3 17 0 24 -12 24 -19 0
-20 2 -3 43 8 18 12 38 10 45 -3 6 2 12 11 12 9 0 16 7 16 16 0 8 -4 12 -10 9
-5 -3 -10 1 -10 9 0 9 3 15 8 15 24 -4 35 2 25 12 -18 18 17 81 40 75 17 -4
17 -3 4 12 -15 17 -9 53 8 54 6 0 9 5 7 10 -2 6 6 8 18 5 11 -3 17 -1 14 4 -3
5 1 12 10 15 8 3 12 12 9 21 -5 12 -1 14 18 8 20 -6 22 -5 12 6 -19 19 -16 24
13 27 34 3 46 11 40 28 -6 17 30 39 39 24 3 -5 11 -10 16 -10 6 0 8 4 5 9 -3
4 43 11 101 15 119 7 142 18 144 70 l2 31 4 -28 c3 -16 -3 -40 -13 -55 -9 -15
-13 -24 -9 -19 5 4 17 0 27 -10 11 -9 18 -11 18 -5 0 7 -5 12 -12 12 -6 0 -9
3 -6 6 4 3 18 -2 33 -12 17 -11 29 -14 33 -7 4 5 14 10 22 10 8 0 22 4 31 7 9
4 23 1 31 -7 8 -8 23 -17 35 -21 12 -4 27 -13 33 -21 7 -8 21 -15 30 -15 10 0
21 -6 23 -12 3 -7 6 1 6 18 1 17 4 34 8 37 10 11 13 57 3 57 -5 0 -10 -6 -13
-12 -4 -10 -7 -10 -18 0 -11 10 -11 12 0 12 8 0 11 6 7 16 -5 14 -4 15 8 5 10
-8 15 -9 18 -1 2 6 14 12 28 13 29 2 50 19 50 42 0 8 11 20 25 25 14 5 25 12
25 15 0 3 -250 5 -555 5 l-555 0 0 -425z m110 374 c0 -12 -8 -23 -20 -26 -11
-3 -20 -12 -20 -19 0 -23 -17 -16 -22 9 -7 41 2 57 33 57 23 0 29 -4 29 -21z
m86 10 c4 -7 -2 -9 -17 -7 -19 2 -25 -2 -27 -20 -3 -20 0 -22 25 -16 26 6 27
5 12 -11 -32 -33 -81 5 -59 46 12 20 54 26 66 8z m102 -33 c2 -10 -2 -22 -10
-27 -25 -17 -38 -9 -38 22 0 26 3 30 22 27 13 -2 24 -11 26 -22z m28 7 c13
-17 13 -17 14 0 0 9 4 17 9 17 6 0 6 -12 0 -30 -6 -16 -15 -30 -19 -30 -4 0
-13 14 -19 30 -11 34 -5 39 15 13z m88 1 c7 -19 -10 -44 -30 -44 -9 0 -14 11
-14 30 0 23 5 30 19 30 10 0 22 -7 25 -16z m86 -15 c0 -27 -2 -30 -15 -19 -11
9 -15 9 -15 1 0 -7 -4 -9 -10 -6 -5 3 -10 17 -10 31 0 19 5 24 25 24 21 0 25
-5 25 -31z m67 15 c3 -8 -2 -23 -11 -32 -14 -15 -18 -15 -31 -1 -9 9 -13 23
-9 32 8 21 43 22 51 1z m37 4 c5 -10 7 -10 12 0 11 23 24 12 24 -20 0 -18 -4
-28 -8 -23 -4 6 -14 10 -22 10 -8 0 -18 -4 -22 -10 -4 -5 -8 5 -8 23 0 32 13
43 24 20z m-484 -513 c0 -8 -4 -15 -10 -15 -5 0 -10 7 -10 15 0 8 5 15 10 15
6 0 10 -7 10 -15z m989 -32 c-24 -31 -39 -45 -39 -37 0 8 41 54 48 54 2 0 -2
-8 -9 -17z m-999 -13 c0 -5 -4 -10 -10 -10 -5 0 -10 5 -10 10 0 6 5 10 10 10
6 0 10 -4 10 -10z m575 -10 c3 -6 -1 -7 -9 -4 -18 7 -21 14 -7 14 6 0 13 -4
16 -10z m64 -33 c-7 -12 -13 -23 -14 -25 -1 -1 -10 8 -21 20 -10 12 -14 18 -7
15 16 -10 44 3 36 16 -3 6 -1 7 5 3 9 -5 9 -13 1 -29z m36 24 c3 -5 2 -12 -3
-15 -5 -3 -9 1 -9 9 0 17 3 19 12 6z m640 -41 c3 -5 1 -10 -4 -10 -6 0 -11 5
-11 10 0 6 2 10 4 10 3 0 8 -4 11 -10z m-42 -45 c-3 -9 -8 -14 -10 -11 -3 3
-2 9 2 15 9 16 15 13 8 -4z m-845 -37 c14 -14 -13 -37 -45 -38 -27 0 -29 7 -6
32 19 21 34 23 51 6z m-58 -78 c13 -8 13 -10 -2 -10 -9 0 -20 5 -23 10 -8 13
5 13 25 0z m480 -24 c0 -2 -7 -6 -15 -10 -8 -3 -15 -1 -15 4 0 6 7 10 15 10 8
0 15 -2 15 -4z m-510 -31 c-7 -8 -14 -15 -15 -15 -2 0 -5 7 -9 15 -4 10 1 15
16 15 17 0 18 -2 8 -15z m-45 -15 c10 -11 16 -20 13 -20 -3 0 -13 9 -23 20
-10 11 -16 20 -13 20 3 0 13 -9 23 -20z m456 -93 c-10 -9 -11 -8 -5 6 3 10 9
15 12 12 3 -3 0 -11 -7 -18z m-126 3 c3 -5 1 -10 -4 -10 -6 0 -11 5 -11 10 0
6 2 10 4 10 3 0 8 -4 11 -10z m12 -54 c-7 -13 -15 -22 -19 -20 -10 6 9 44 21
44 5 0 4 -11 -2 -24z m103 14 c0 -5 -5 -10 -11 -10 -5 0 -7 5 -4 10 3 6 8 10
11 10 2 0 4 -4 4 -10z m48 -15 c-3 -3 -9 2 -12 12 -6 14 -5 15 5 6 7 -7 10
-15 7 -18z m35 5 c-8 -31 -23 -34 -23 -6 0 16 6 26 14 26 9 0 12 -7 9 -20z
m416 -25 c0 -5 -6 -1 -14 9 -8 11 -15 24 -15 30 0 5 7 1 15 -10 8 -10 14 -23
14 -29z m547 30 c17 -13 16 -14 -13 -4 -34 11 -42 19 -20 19 7 0 22 -7 33 -15z
m-1605 -32 c-12 -20 -14 -14 -5 12 4 9 9 14 11 11 3 -2 0 -13 -6 -23z m529 23
c0 -3 -4 -8 -10 -11 -5 -3 -10 -1 -10 4 0 6 5 11 10 11 6 0 10 -2 10 -4z
m1032 -26 c20 -6 39 -17 42 -26 5 -13 3 -13 -22 -1 -15 8 -38 20 -52 25 -33
14 -15 15 32 2z m-959 -17 c-7 -2 -13 -9 -13 -14 0 -6 5 -7 12 -3 7 4 8 3 4
-4 -10 -16 -37 -15 -33 1 2 14 18 27 32 26 6 0 4 -3 -2 -6z m-133 -42 c-5 -11
-15 -23 -22 -27 -7 -5 -8 -2 -3 7 21 37 44 55 25 20z m50 15 c0 -3 -4 -8 -10
-11 -5 -3 -10 -1 -10 4 0 6 5 11 10 11 6 0 10 -2 10 -4z m1035 -24 c-3 -3 -11
0 -18 7 -9 10 -8 11 6 5 10 -3 15 -9 12 -12z m-1687 -66 c-14 -10 -15 -15 -5
-26 10 -10 8 -12 -10 -7 -14 3 -24 -1 -27 -10 -3 -8 -11 -11 -17 -7 -12 7 46
64 66 63 6 0 2 -5 -7 -13z m1629 -7 c15 -15 -11 -44 -28 -33 -9 5 -10 0 -7
-14 4 -12 2 -22 -3 -22 -12 0 -11 22 1 54 10 28 20 32 37 15z m-1311 -26 c7
-10 14 -39 14 -64 0 -42 -3 -48 -25 -53 -14 -4 -25 -10 -25 -15 0 -4 15 -3 34
3 19 6 32 14 30 18 -3 4 2 8 10 8 14 0 21 -17 18 -41 -1 -4 16 -9 37 -13 22
-3 42 -13 45 -22 10 -25 7 -64 -4 -64 -15 0 16 -56 35 -63 31 -13 40 2 38 64
-1 34 -4 67 -7 75 -4 10 3 14 24 14 28 0 29 -1 23 -37 l-6 -38 27 24 c14 14
26 29 26 35 0 6 11 12 25 12 14 1 25 -2 25 -7 0 -5 -6 -9 -13 -9 -7 0 -24 -14
-37 -32 l-23 -31 46 -44 46 -43 -34 0 c-24 0 -35 5 -40 19 -3 10 -15 27 -27
37 -21 19 -21 19 -16 -18 4 -37 3 -38 -28 -38 -66 0 -93 11 -116 49 l-23 36
-3 -28 c-2 -16 2 -35 9 -43 10 -12 2 -14 -54 -14 -57 0 -65 2 -61 18 2 9 0 24
-6 32 -9 13 -11 13 -20 0 -8 -13 -10 -13 -10 -1 0 11 -4 9 -14 -5 -10 -13 -11
-23 -4 -31 8 -10 3 -13 -22 -13 -32 0 -32 1 -16 19 15 17 40 81 31 81 -3 0
-14 -18 -25 -40 -11 -21 -29 -44 -39 -50 -25 -13 -131 -13 -131 0 0 6 4 10 8
10 12 0 12 123 0 138 -8 9 0 12 36 12 44 0 78 -11 136 -45 23 -14 25 -13 28 7
2 12 11 28 20 34 13 9 14 15 5 26 -9 11 -8 16 8 26 23 15 25 35 3 53 -14 11
-14 13 0 21 9 5 16 18 16 28 0 25 9 25 26 3z m-226 -23 c0 -5 -4 -10 -10 -10
-5 0 -10 5 -10 10 0 6 5 10 10 10 6 0 10 -4 10 -10z m65 -8 c-3 -3 -11 0 -18
7 -9 10 -8 11 6 5 10 -3 15 -9 12 -12z m227 -34 c-8 -8 -9 -4 -5 13 4 13 8 18
11 10 2 -7 -1 -18 -6 -23z m112 -3 c-4 -8 -8 -15 -10 -15 -2 0 -4 7 -4 15 0 8
4 15 10 15 5 0 7 -7 4 -15z m757 -18 c-10 -9 -11 -8 -5 6 3 10 9 15 12 12 3
-3 0 -11 -7 -18z m-1141 -3 c0 -8 -4 -12 -10 -9 -5 3 -10 10 -10 16 0 5 5 9
10 9 6 0 10 -7 10 -16z m900 6 c0 -5 -5 -10 -11 -10 -5 0 -7 5 -4 10 3 6 8 10
11 10 2 0 4 -4 4 -10z m-173 -78 c7 -5 10 -17 6 -32 -6 -24 -6 -24 -14 -2 -9
24 -49 31 -49 8 0 -7 16 -26 36 -41 30 -23 35 -31 29 -54 -8 -31 -21 -41 -55
-41 -36 1 -59 21 -50 45 7 19 7 19 18 -2 14 -25 34 -34 51 -23 17 10 -1 46
-27 54 -11 4 -25 17 -32 31 -12 22 -11 27 5 45 18 20 60 26 82 12z m-330 -78
c-3 -3 -12 -4 -19 -1 -8 3 -5 6 6 6 11 1 17 -2 13 -5z m-220 -126 c-3 -7 -5
-2 -5 12 0 14 2 19 5 13 2 -7 2 -19 0 -25z m-259 -110 c6 -16 10 -28 7 -28 -5
0 -35 56 -35 67 0 12 15 -10 28 -39z m122 12 c0 -5 -2 -10 -4 -10 -3 0 -8 5
-11 10 -3 6 -1 10 4 10 6 0 11 -4 11 -10z m105 -100 c3 -5 1 -10 -4 -10 -6 0
-11 5 -11 10 0 6 2 10 4 10 3 0 8 -4 11 -10z m1135 -4 c0 -3 -4 -8 -10 -11 -5
-3 -10 -1 -10 4 0 6 5 11 10 11 6 0 10 -2 10 -4z m-1160 -196 c0 -5 -4 -10
-10 -10 -5 0 -10 5 -10 10 0 6 5 10 10 10 6 0 10 -4 10 -10z m40 -25 c0 -14
-4 -25 -9 -25 -5 0 -8 11 -7 25 1 33 16 33 16 0z m359 -85 c79 -22 146 -42
149 -45 12 -11 -36 -3 -88 15 -30 11 -76 19 -102 20 -56 0 -93 13 -101 34 -4
9 -5 16 -4 16 1 0 67 -18 146 -40z m529 -151 c36 -10 73 -26 81 -34 14 -13 12
-15 -14 -15 l-30 -1 30 -14 30 -14 -40 6 c-60 9 -110 28 -108 40 1 6 -11 17
-27 25 -35 15 -42 43 -9 33 12 -4 51 -15 87 -26z m-928 -226 c0 -131 -3 -173
-12 -174 -7 -1 -70 -2 -140 -3 l-128 -1 0 172 0 172 28 3 c15 2 78 3 140 3
l112 0 0 -172z m1510 -88 l0 -126 -142 3 -143 3 -3 109 c-1 61 0 116 2 123 4
10 39 13 146 13 l140 0 0 -125z m-842 11 c27 2 32 -1 32 -19 0 -20 -6 -22 -52
-24 -38 -1 -56 3 -66 15 -13 16 -13 16 -8 0 3 -10 1 -18 -4 -18 -6 0 -10 6
-10 13 0 8 -4 7 -10 -3 -9 -13 -11 -13 -21 0 -8 11 -12 12 -16 3 -8 -22 -23
-14 -23 13 0 24 2 25 55 23 30 -1 58 1 62 4 3 4 11 3 17 -1 6 -4 26 -7 44 -6z
m75 -9 c-5 -9 -3 -9 8 0 10 8 55 11 132 11 96 -1 120 -5 127 -17 8 -14 9 -14
10 2 0 13 9 17 43 17 32 0 44 -4 44 -15 0 -8 -5 -15 -11 -15 -6 0 -4 -5 4 -10
12 -8 11 -10 -7 -10 -15 0 -23 6 -24 18 -1 15 -2 15 -6 1 -3 -13 -16 -16 -61
-16 -31 1 -60 6 -64 12 -5 6 -8 5 -8 -2 0 -21 -16 -15 -28 10 l-11 22 0 -22
c-1 -28 -21 -31 -21 -3 0 12 -7 20 -17 20 -9 0 -14 -3 -10 -6 14 -15 -22 -31
-70 -31 -50 0 -51 1 -48 26 4 34 3 33 15 26 6 -4 7 -12 3 -18z m-967 -128 c16
-12 17 -12 12 2 -5 13 -2 16 13 12 10 -3 19 -13 19 -22 0 -14 -2 -14 -10 -1
-6 10 -10 11 -10 3 0 -13 -26 -13 -47 0 -7 5 -17 5 -23 2 -5 -3 -10 0 -10 8 0
17 33 15 56 -4z m92 -1 c9 -9 12 -9 12 0 0 7 5 12 11 12 5 0 7 -4 4 -10 -3 -5
-1 -10 4 -10 6 0 11 5 11 10 0 14 27 12 33 -2 4 -10 8 -9 16 2 10 13 11 13 11
0 0 -12 2 -12 9 -2 7 11 9 11 14 0 4 -12 -10 -14 -68 -14 -41 0 -72 3 -69 7 2
4 -4 10 -13 12 -14 4 -14 5 -2 6 8 0 20 -4 27 -11z"/>
<path d="M70 2770 c0 -5 5 -10 11 -10 5 0 7 5 4 10 -3 6 -8 10 -11 10 -2 0 -4
-4 -4 -10z"/>
<path d="M260 2740 c0 -5 5 -10 10 -10 6 0 10 5 10 10 0 6 -4 10 -10 10 -5 0
-10 -4 -10 -10z"/>
<path d="M380 2740 c0 -5 5 -10 10 -10 6 0 10 5 10 10 0 6 -4 10 -10 10 -5 0
-10 -4 -10 -10z"/>
<path d="M536 2751 c-4 -7 -5 -15 -2 -18 9 -9 19 4 14 18 -4 11 -6 11 -12 0z"/>
<path d="M505 1430 c-3 -5 -1 -10 4 -10 6 0 11 5 11 10 0 6 -2 10 -4 10 -3 0
-8 -4 -11 -10z"/>
<path d="M477 1392 c-19 -21 -22 -48 -7 -57 6 -3 14 4 19 17 9 21 9 20 8 -9
-1 -17 -5 -29 -9 -26 -11 6 -10 -19 1 -36 5 -7 14 -10 20 -7 14 9 14 39 0 53
-8 8 -8 13 0 17 15 10 14 41 -2 55 -11 8 -18 7 -30 -7z"/>
<path d="M240 1334 l0 -65 32 3 c41 4 60 37 47 81 -10 35 -24 47 -56 47 -22 0
-23 -4 -23 -66z"/>
<path d="M550 1370 c0 -35 25 -42 35 -10 8 24 -1 40 -21 40 -9 0 -14 -11 -14
-30z"/>
<path d="M1839 309 c12 -12 25 -18 29 -14 4 4 -2 13 -12 21 -30 22 -43 17 -17
-7z"/>
<path d="M1739 293 c-13 -16 -12 -17 4 -4 16 13 21 21 13 21 -2 0 -10 -8 -17
-17z"/>
<path d="M1775 300 c3 -5 8 -10 11 -10 2 0 4 5 4 10 0 6 -5 10 -11 10 -5 0 -7
-4 -4 -10z"/>
<path d="M1810 290 c-9 -6 -10 -10 -3 -10 6 0 15 5 18 10 8 12 4 12 -15 0z"/>
<path d="M1646 267 c-15 -11 -17 -17 -7 -35 6 -12 17 -22 23 -22 9 0 9 3 0 12
-13 13 -17 42 -4 34 5 -3 9 1 9 9 0 18 1 18 -21 2z"/>
<path d="M1860 219 c0 -7 -8 -18 -17 -25 -15 -11 -16 -13 -2 -14 8 0 20 5 27
12 15 15 16 38 2 38 -5 0 -10 -5 -10 -11z"/>
<path d="M990 230 c0 -5 5 -10 10 -10 6 0 10 5 10 10 0 6 -4 10 -10 10 -5 0
-10 -4 -10 -10z"/>
<path d="M1160 230 c0 -5 5 -10 10 -10 6 0 10 5 10 10 0 6 -4 10 -10 10 -5 0
-10 -4 -10 -10z"/>
<path d="M1169 2804 c-12 -15 -11 -16 9 -10 12 4 22 4 22 -1 0 -4 13 -8 29 -9
26 -1 28 1 18 17 -15 23 -60 25 -78 3z"/>
<path d="M1440 2810 c0 -5 18 -15 41 -21 23 -7 43 -19 46 -26 3 -7 18 -13 33
-13 16 0 32 -4 35 -10 4 -6 15 -4 29 5 12 8 25 12 29 9 3 -3 15 -3 26 1 15 4
21 15 21 36 l0 29 -130 0 c-76 0 -130 -4 -130 -10z"/>
<path d="M1759 2799 c10 -11 25 -21 32 -23 8 -1 20 -5 27 -9 6 -5 17 -5 23 -1
8 4 9 -1 3 -17 -4 -13 -8 -35 -9 -48 -1 -15 -10 -27 -23 -32 -12 -5 -22 -11
-22 -14 0 -10 54 -1 62 10 5 6 14 6 25 -3 31 -21 45 -25 52 -15 11 17 51 23
51 8 0 -8 5 -17 10 -20 6 -4 10 28 10 89 l0 96 -130 0 -131 0 20 -21z"/>
<path d="M1070 2730 c19 -13 30 -13 30 0 0 6 -10 10 -22 10 -19 0 -20 -2 -8
-10z"/>
<path d="M1015 2701 c-2 -5 4 -11 15 -14 11 -3 20 -2 20 3 0 12 -28 21 -35 11z"/>
<path d="M865 2610 c3 -5 8 -10 11 -10 2 0 4 5 4 10 0 6 -5 10 -11 10 -5 0 -7
-4 -4 -10z"/>
<path d="M987 2603 c-10 -10 -8 -43 2 -43 9 0 21 24 21 41 0 11 -14 12 -23 2z"/>
<path d="M1030 2590 c-9 -16 -8 -20 5 -20 9 0 13 5 10 10 -3 6 -1 10 4 10 6 0
11 5 11 10 0 17 -19 11 -30 -10z"/>
<path d="M880 2561 c0 -11 31 -24 39 -16 3 3 -1 10 -9 15 -19 12 -30 12 -30 1z"/>
<path d="M1295 1400 c3 -5 11 -10 16 -10 6 0 7 5 4 10 -3 6 -11 10 -16 10 -6
0 -7 -4 -4 -10z"/>
<path d="M1723 1398 c3 -9 3 -19 -1 -23 -11 -11 -12 -85 -1 -85 5 0 7 -4 4
-10 -3 -5 -2 -10 4 -10 14 0 13 128 -1 136 -7 5 -9 2 -5 -8z"/>
<path d="M1123 1382 c10 -10 17 -25 17 -32 0 -7 3 -10 7 -7 8 9 -17 57 -30 57
-6 0 -3 -8 6 -18z"/>
<path d="M1777 1337 c2 -78 3 -88 11 -59 8 27 3 122 -6 122 -4 0 -6 -28 -5
-63z"/>
<path d="M1953 1389 c-6 -6 -9 -18 -6 -25 3 -8 -1 -14 -11 -14 -20 0 -36 -39
-36 -85 0 -34 15 -56 23 -33 3 10 9 10 29 -1 40 -21 50 -7 47 68 -3 71 -24
112 -46 90z"/>
<path d="M1825 1289 c-4 -6 -5 -12 -2 -15 2 -3 7 2 10 11 7 17 1 20 -8 4z"/>
<path d="M1200 1283 c0 -6 8 -17 18 -24 16 -13 16 -13 2 6 -8 11 -16 22 -17
24 -2 2 -3 0 -3 -6z"/>
<path d="M1512 1254 c10 -10 20 -16 22 -13 3 3 -5 11 -17 18 -21 13 -21 12 -5
-5z"/>
<path d="M1660 1245 c0 -7 30 -13 34 -7 3 4 -4 9 -15 9 -10 1 -19 0 -19 -2z"/>
<path d="M1726 1241 c-3 -4 20 -8 49 -8 30 0 53 3 50 7 -6 9 -94 10 -99 1z"/>
<path d="M1720 1209 c0 -5 5 -7 10 -4 6 3 10 8 10 11 0 2 -4 4 -10 4 -5 0 -10
-5 -10 -11z"/>
<path d="M1100 1176 c0 -8 4 -17 9 -20 5 -4 7 3 4 14 -6 23 -13 26 -13 6z"/>
</g>
</svg>
