<?xml version="1.0" standalone="no"?>
<!DOCTYPE svg PUBLIC "-//W3C//DTD SVG 20010904//EN"
 "http://www.w3.org/TR/2001/REC-SVG-20010904/DTD/svg10.dtd">
<svg version="1.0" xmlns="http://www.w3.org/2000/svg"
 width="2160.000000pt" height="2160.000000pt" viewBox="0 0 2160.000000 2160.000000"
 preserveAspectRatio="xMidYMid meet">

<g transform="translate(0.000000,2160.000000) scale(0.100000,-0.100000)"
fill="#000000" stroke="none">
<path d="M8450 15264 c-69 -7 -210 -27 -315 -44 -104 -17 -248 -40 -320 -51
-146 -24 -402 -86 -483 -118 -83 -33 -153 -70 -207 -110 -27 -21 -68 -46 -90
-56 -65 -30 -195 -117 -266 -177 -76 -65 -190 -197 -244 -283 -20 -33 -68 -91
-104 -130 -37 -38 -85 -101 -106 -140 -21 -38 -53 -88 -71 -111 -18 -22 -57
-89 -86 -150 -30 -60 -65 -129 -80 -154 -46 -78 -115 -284 -183 -550 -15 -58
-49 -184 -77 -280 -143 -501 -206 -841 -267 -1450 -36 -356 -44 -521 -44 -930
1 -539 39 -1085 113 -1595 11 -77 24 -168 29 -202 5 -34 25 -115 44 -180 20
-65 50 -176 68 -248 17 -71 43 -161 56 -200 40 -112 132 -282 201 -375 36 -47
93 -128 126 -180 156 -240 445 -544 726 -766 262 -206 670 -435 805 -451 22
-3 111 -30 198 -59 193 -66 437 -127 612 -153 420 -64 441 -66 800 -66 530 1
840 43 1215 167 436 143 573 220 820 455 149 141 328 365 441 550 l56 92 6
-192 c6 -196 20 -325 60 -571 21 -127 25 -141 52 -164 l29 -25 231 6 c126 4
318 16 425 27 123 13 289 22 450 25 339 5 559 15 566 26 3 5 13 9 23 9 10 0
34 17 54 39 l35 39 7 138 c8 136 2 354 -15 604 -4 69 -14 258 -20 420 -10 269
-10 330 10 680 28 500 35 853 20 995 -21 202 -22 224 -15 311 l7 86 386 -7
c274 -5 451 -4 607 5 121 7 267 11 325 9 117 -4 526 -2 934 5 l269 4 29 29
c29 29 29 31 39 194 5 90 14 189 19 219 30 181 19 953 -15 1037 -22 55 -123
150 -168 158 -149 25 -688 34 -897 15 -52 -5 -153 -8 -225 -8 -71 1 -310 2
-530 2 -220 1 -515 2 -656 4 l-255 2 -12 138 c-7 75 -16 162 -22 192 -29 164
-71 1224 -74 1860 -3 503 -3 506 -33 721 -30 212 -43 259 -79 289 -42 35 -103
60 -145 60 -24 0 -66 7 -94 16 -30 9 -86 15 -140 15 -49 -1 -279 1 -510 2
-334 3 -424 1 -440 -10 -11 -7 -38 -13 -60 -13 -22 0 -73 -6 -114 -14 -109
-21 -124 -39 -134 -164 -15 -177 -18 -465 -7 -607 7 -77 14 -187 17 -245 l5
-105 -59 115 c-119 234 -237 409 -375 557 -56 60 -144 159 -196 222 -202 240
-447 408 -719 495 -46 14 -109 39 -140 55 -76 38 -209 84 -347 121 -180 48
-552 120 -676 130 -165 14 -652 10 -800 -6z m670 -89 c95 -5 195 -18 340 -46
363 -70 567 -126 740 -204 52 -24 127 -53 165 -65 91 -28 254 -106 347 -165
125 -81 207 -155 327 -295 64 -74 154 -175 201 -225 160 -170 309 -411 455
-741 29 -65 51 -144 59 -209 4 -27 8 -403 10 -835 2 -432 5 -792 7 -800 3 -13
-18 -15 -141 -18 -80 -2 -202 2 -273 8 -140 12 -237 2 -271 -28 -16 -15 -43
-17 -205 -15 -102 2 -242 6 -310 9 -157 8 -159 10 -185 149 -10 55 -23 108
-28 117 -12 25 -24 88 -53 293 -33 230 -68 393 -107 503 -36 102 -80 193 -103
212 -9 7 -38 59 -65 114 -63 129 -123 204 -192 241 -29 15 -69 40 -88 55 -95
73 -218 113 -490 160 -63 11 -145 27 -182 36 -121 29 -234 2 -463 -111 -71
-35 -159 -76 -195 -90 -117 -48 -262 -129 -311 -173 -27 -24 -94 -107 -151
-185 -85 -118 -106 -153 -119 -207 -9 -36 -29 -87 -43 -114 -14 -27 -26 -57
-26 -68 0 -10 -11 -40 -25 -66 -28 -54 -82 -311 -120 -569 -17 -117 -25 -211
-25 -310 0 -95 -4 -143 -11 -145 -8 -3 -12 -92 -14 -298 -1 -162 -5 -392 -10
-511 -14 -399 41 -752 183 -1171 27 -79 57 -179 66 -223 10 -44 35 -114 56
-155 20 -41 40 -93 44 -115 18 -100 403 -550 537 -628 60 -35 228 -95 464
-165 l190 -56 245 -1 245 0 95 33 c178 62 360 181 360 235 1 33 48 79 158 152
55 36 106 73 115 83 8 9 41 96 73 192 l57 175 7 220 c7 254 5 472 -5 532 l-7
41 53 6 c30 3 115 10 189 16 213 18 1009 99 1075 110 33 5 65 10 71 10 13 0
25 -674 27 -1585 l1 -560 -36 -96 c-106 -287 -311 -593 -570 -851 -215 -215
-361 -300 -732 -428 -421 -145 -734 -194 -1241 -195 -306 0 -306 0 -744 66
-210 32 -553 122 -688 180 -27 11 -66 23 -88 25 -180 21 -609 267 -926 532
-128 106 -330 308 -432 431 -42 50 -115 149 -162 219 -47 70 -113 163 -145
207 -59 80 -140 231 -179 335 -12 30 -37 120 -57 200 -30 124 -50 194 -105
375 -5 17 -13 71 -19 120 -5 50 -20 165 -34 256 -63 421 -106 1085 -100 1539
5 350 22 587 79 1090 40 345 112 691 245 1165 32 116 75 272 95 347 57 219
115 379 169 468 8 14 38 72 65 131 28 58 66 123 84 145 18 21 50 70 71 109 45
82 76 122 121 152 18 12 46 46 63 76 105 185 282 354 477 452 34 17 83 47 110
66 103 75 223 124 424 173 137 34 226 50 576 105 321 51 573 73 735 65 36 -2
126 -6 200 -9z m-71 -1855 c20 -5 90 -19 156 -30 156 -27 347 -75 394 -100 21
-10 59 -35 85 -55 26 -20 66 -45 89 -56 52 -25 105 -94 160 -209 22 -47 54
-100 70 -119 54 -63 116 -238 157 -441 33 -160 70 -434 70 -510 0 -36 6 -56
23 -77 16 -19 28 -53 37 -108 13 -72 18 -84 55 -121 l40 -42 135 -6 c74 -4
241 -8 371 -9 224 -2 238 -1 259 18 25 22 21 22 403 17 176 -2 207 -4 207 -17
0 -8 5 -15 10 -15 6 0 10 -9 10 -20 0 -19 -7 -20 -252 -20 -319 0 -649 -14
-938 -39 -124 -11 -335 -25 -470 -31 -135 -6 -330 -15 -435 -20 -104 -6 -309
-14 -455 -20 -531 -21 -745 -42 -784 -79 -12 -12 -29 -21 -37 -21 -9 0 -27
-12 -41 -27 -24 -26 -27 -37 -33 -153 -12 -235 61 -1138 115 -1420 12 -58 25
-172 30 -255 4 -82 15 -186 23 -230 9 -44 20 -137 27 -208 6 -70 17 -148 25
-175 8 -26 15 -63 15 -82 0 -53 54 -100 153 -134 73 -26 90 -28 318 -33 345
-9 646 9 809 48 69 16 134 29 146 29 11 0 30 10 41 23 19 22 20 31 13 542 -3
286 -10 527 -14 536 -5 12 -1 18 16 23 29 7 212 8 259 0 36 -6 36 -7 47 -73 6
-40 9 -164 6 -316 -6 -273 -3 -259 -85 -515 l-40 -126 -82 -54 c-103 -68 -207
-167 -207 -196 0 -43 -147 -134 -315 -195 -89 -33 -91 -33 -275 -34 -208 0
-232 5 -576 116 -257 83 -290 101 -419 232 -142 144 -342 403 -350 455 -4 20
-24 71 -44 112 -21 42 -46 112 -55 155 -10 44 -42 152 -71 240 -130 388 -193
759 -181 1062 3 82 8 290 11 463 3 173 10 324 15 335 5 11 11 99 14 195 5 185
19 293 83 605 22 109 45 197 60 224 12 24 23 52 23 61 0 9 11 38 25 65 14 26
31 71 37 99 6 28 17 63 24 78 27 52 185 264 225 300 43 39 201 124 334 179 44
18 105 47 135 64 30 18 93 47 140 65 47 18 99 38 115 46 36 15 95 17 144 4z"/>
</g>
</svg>
